# xmcd
#
# Track frame offsets: 
#        150
#        22250
#        37962
#        57700
#        75800
#        90600
#        114337
#        134525
#        152137
#        172787
#
# Disc length: 2638 seconds
#
# Revision: 0
# Processed by: cddbd v1.5.2PL0 Copyright (c) Steve Scherf et al.
# Submitted via: ExactAudioCopy v0.95a5
#
DISCID=750a4c0a
DTITLE=江蕙 - 風吹的願望
DYEAR=1900
DGENRE=
TTITLE0=心狠手辣
TTITLE1=圍巾
TTITLE2=風吹的願望
TTITLE3=咖啡
TTITLE4=我愛你
TTITLE5=女人的故事
TTITLE6=無瞑無日
TTITLE7=一頂眠床同棉被
TTITLE8=造化
TTITLE9=海平線
EXTD=
EXTT0=
EXTT1=
EXTT2=
EXTT3=
EXTT4=
EXTT5=
EXTT6=
EXTT7=
EXTT8=
EXTT9=
PLAYORDER=
